<svg id="Layer_1" data-name="Layer 1" xmlns="http://www.w3.org/2000/svg" viewBox="0 0 1026 770">
  <defs>
    <style>
      .cls-1 {
        fill: #7992a5;
      }

      .cls-2 {
        fill: #333;
      }

      .cls-3 {
        fill: #706f6d;
      }

      .cls-4 {
        fill: #7f7163;
      }

      .cls-5 {
        fill: #9b7654;
      }

      .cls-6 {
        fill: #352d26;
      }

      .cls-7 {
        font-size: 37px;
        fill: #fff;
        font-family: MyriadPro-Regular, Myriad Pro;
      }

      .cls-8 {
        fill: #545453;
      }
    </style>
  </defs>
  <title>background2</title>
  <rect class="cls-1" x="1" width="1024" height="767"/>
  <g>
    <rect class="cls-2" x="1" y="699.18" width="57" height="34.91"/>
    <rect class="cls-3" x="29.05" y="699.18" width="28.95" height="16.96"/>
  </g>
  <g>
    <rect class="cls-2" x="58" y="733.1" width="69" height="34.91"/>
    <rect class="cls-3" x="91.95" y="733.1" width="35.05" height="16.96"/>
  </g>
  <g>
    <rect class="cls-2" x="58" y="700.18" width="69" height="34.91"/>
    <rect class="cls-3" x="91.95" y="700.18" width="35.05" height="16.96"/>
  </g>
  <g>
    <rect class="cls-2" x="127" y="733.1" width="63" height="34.91"/>
    <rect class="cls-3" x="158" y="733.1" width="32" height="16.96"/>
  </g>
  <g>
    <rect class="cls-2" x="126" y="700.18" width="63" height="34.91"/>
    <rect class="cls-3" x="157" y="700.18" width="32" height="16.96"/>
  </g>
  <g>
    <rect class="cls-2" x="190" y="733.1" width="63" height="34.91"/>
    <rect class="cls-3" x="221" y="733.1" width="32" height="16.96"/>
  </g>
  <g>
    <rect class="cls-2" x="189" y="700.18" width="63" height="34.91"/>
    <rect class="cls-3" x="220" y="700.18" width="32" height="16.96"/>
  </g>
  <g>
    <rect class="cls-2" x="252" y="732.1" width="63" height="37.9"/>
    <rect class="cls-3" x="283" y="732.1" width="32" height="18.41"/>
  </g>
  <g>
    <rect class="cls-2" x="252" y="700.18" width="63" height="34.91"/>
    <rect class="cls-3" x="283" y="700.18" width="32" height="16.96"/>
  </g>
  <g>
    <rect class="cls-2" x="315" y="732.1" width="63" height="35.9"/>
    <rect class="cls-3" x="346" y="732.1" width="32" height="17.44"/>
  </g>
  <g>
    <rect class="cls-2" x="315" y="700.18" width="63" height="34.91"/>
    <rect class="cls-3" x="346" y="700.18" width="32" height="16.96"/>
  </g>
  <g>
    <rect class="cls-2" x="378" y="733.1" width="63" height="34.91"/>
    <rect class="cls-3" x="409" y="733.1" width="32" height="16.96"/>
  </g>
  <g>
    <rect class="cls-2" x="441" y="733.1" width="63" height="34.91"/>
    <rect class="cls-3" x="472" y="733.1" width="32" height="16.96"/>
  </g>
  <g>
    <rect class="cls-2" x="504" y="732.1" width="63" height="34.91"/>
    <rect class="cls-3" x="535" y="732.1" width="32" height="16.96"/>
  </g>
  <g>
    <rect class="cls-2" x="378" y="700.18" width="63" height="34.91"/>
    <rect class="cls-3" x="409" y="700.18" width="32" height="16.96"/>
  </g>
  <g>
    <rect class="cls-2" x="441" y="700.18" width="63" height="34.91"/>
    <rect class="cls-3" x="472" y="700.18" width="32" height="16.96"/>
  </g>
  <g>
    <rect class="cls-2" x="504" y="700.18" width="63" height="34.91"/>
    <rect class="cls-3" x="535" y="700.18" width="32" height="16.96"/>
  </g>
  <g>
    <rect class="cls-2" x="567" y="700.18" width="63" height="34.91"/>
    <rect class="cls-3" x="598" y="700.18" width="32" height="16.96"/>
  </g>
  <g>
    <rect class="cls-2" x="567" y="732.1" width="63" height="34.91"/>
    <rect class="cls-3" x="598" y="732.1" width="32" height="16.96"/>
  </g>
  <g>
    <rect class="cls-2" x="630" y="732.1" width="63" height="34.91"/>
    <rect class="cls-3" x="661" y="732.1" width="32" height="16.96"/>
  </g>
  <g>
    <rect class="cls-2" x="693" y="732.1" width="63" height="34.91"/>
    <rect class="cls-3" x="724" y="732.1" width="32" height="16.96"/>
  </g>
  <g>
    <rect class="cls-2" x="756" y="732.1" width="63" height="34.91"/>
    <rect class="cls-3" x="787" y="732.1" width="32" height="16.96"/>
  </g>
  <g>
    <rect class="cls-2" x="630" y="700.18" width="63" height="34.91"/>
    <rect class="cls-3" x="661" y="700.18" width="32" height="16.96"/>
  </g>
  <g>
    <rect class="cls-2" x="693" y="700.18" width="63" height="34.91"/>
    <rect class="cls-3" x="724" y="700.18" width="32" height="16.96"/>
  </g>
  <g>
    <rect class="cls-2" x="756" y="699.18" width="63" height="34.91"/>
    <rect class="cls-3" x="787" y="699.18" width="32" height="16.96"/>
  </g>
  <g>
    <rect class="cls-2" x="819" y="733.1" width="63" height="34.91"/>
    <rect class="cls-3" x="850" y="733.1" width="32" height="16.96"/>
  </g>
  <g>
    <rect class="cls-2" x="819" y="699.18" width="63" height="35.91"/>
    <rect class="cls-3" x="850" y="699.18" width="32" height="17.44"/>
  </g>
  <g>
    <rect class="cls-2" x="882" y="731.1" width="63" height="36.9"/>
    <rect class="cls-3" x="913" y="731.1" width="32" height="17.92"/>
  </g>
  <g>
    <rect class="cls-2" x="882" y="699.18" width="63" height="34.91"/>
    <rect class="cls-3" x="913" y="699.18" width="32" height="16.96"/>
  </g>
  <g>
    <rect class="cls-2" x="945" y="699.18" width="80" height="34.91"/>
    <rect class="cls-3" x="984.37" y="699.18" width="40.63" height="16.96"/>
  </g>
  <g>
    <rect class="cls-2" x="945" y="733.1" width="80" height="34.91"/>
    <rect class="cls-3" x="984.37" y="733.1" width="40.63" height="16.96"/>
  </g>
  <g>
    <rect class="cls-2" x="1" y="733.1" width="56" height="34.91"/>
    <rect class="cls-3" x="28.56" y="733.1" width="28.44" height="16.96"/>
  </g>
  <rect class="cls-2" x="1" y="681" width="1024" height="20"/>
  <rect class="cls-4" x="1" y="514" width="408" height="38"/>
  <rect class="cls-4" x="615" y="514" width="408" height="38"/>
  <rect class="cls-4" x="300" y="328" width="408" height="38"/>
  <rect class="cls-4" x="870" y="365" width="155" height="38"/>
  <rect class="cls-4" x="1" y="365" width="155" height="38"/>
  <rect class="cls-4" x="1" y="147" width="346" height="38"/>
  <rect class="cls-4" x="677" y="147" width="346" height="38"/>
  <rect class="cls-5" x="1" y="166" width="346" height="19"/>
  <rect class="cls-5" x="677" y="166" width="346" height="19"/>
  <rect class="cls-5" x="299" y="348" width="409" height="19"/>
  <rect class="cls-5" y="384" width="156" height="19"/>
  <rect class="cls-5" x="870" y="384" width="156" height="19"/>
  <rect class="cls-5" y="533" width="409" height="19"/>
  <rect class="cls-5" x="615" y="533" width="409" height="19"/>
  <rect class="cls-5" x="462" y="504" width="105" height="48" rx="12" ry="12"/>
  <text x="1"></text>
  <rect class="cls-6" x="466" y="506" width="96.25" height="44" rx="12" ry="12"/>
  <text class="cls-7" transform="translate(481.31 541.14)">FIRE</text>
  <rect class="cls-8" x="1" y="36" width="16" height="111"/>
  <rect class="cls-2" x="9" y="46" width="16" height="101"/>
  <rect class="cls-8" x="17" y="58" width="17" height="89"/>
  <rect class="cls-2" x="23" y="71" width="17" height="76"/>
  <rect class="cls-8" x="30" y="82" width="16" height="65"/>
  <rect class="cls-2" x="36" y="96" width="15" height="51"/>
  <rect class="cls-2" x="12" y="91" width="39" height="56"/>
  <rect class="cls-8" x="1006" y="570" width="16" height="111" transform="translate(2029 1251) rotate(-180)"/>
  <rect class="cls-2" x="998" y="580" width="16" height="101" transform="translate(2013 1261) rotate(-180)"/>
  <rect class="cls-8" x="989" y="592" width="17" height="89" transform="translate(1996 1273) rotate(-180)"/>
  <rect class="cls-2" x="983" y="605" width="17" height="76" transform="translate(1984 1286) rotate(-180)"/>
  <rect class="cls-8" x="977" y="616" width="16" height="65" transform="translate(1971 1297) rotate(-180)"/>
  <rect class="cls-2" x="972" y="630" width="15" height="51" transform="translate(1960 1311) rotate(-180)"/>
  <rect class="cls-2" x="972" y="625" width="39" height="56" transform="translate(1984 1306) rotate(-180)"/>
</svg>
