<svg id="Layer_1" data-name="Layer 1" xmlns="http://www.w3.org/2000/svg" viewBox="0 0 1024 584">
  <defs>
    <style>
      .cls-1 {
        fill: #7992a5;
      }

      .cls-2 {
        fill: #7f7163;
      }

      .cls-3 {
        fill: #9b7654;
      }

      .cls-4 {
        fill: #545453;
      }

      .cls-5 {
        fill: #333;
      }

      .cls-6 {
        fill: #ccc;
      }
    </style>
  </defs>
  <title>background2</title>
  <rect class="cls-1" width="1024" height="583"/>
  <rect class="cls-2" y="330" width="236" height="38"/>
  <rect class="cls-2" x="323" y="330" width="701" height="38"/>
  <rect class="cls-2" y="151" width="646" height="38"/>
  <rect class="cls-2" x="735" y="151" width="289" height="38"/>
  <rect class="cls-3" y="170" width="646" height="19"/>
  <rect class="cls-3" x="735" y="170" width="289" height="19"/>
  <rect class="cls-3" y="349" width="236" height="19"/>
  <rect class="cls-3" x="323" y="349" width="701" height="19"/>
  <text></text>
  <rect class="cls-4" y="40" width="16" height="111"/>
  <rect class="cls-5" x="8" y="50" width="16" height="101"/>
  <rect class="cls-4" x="16" y="62" width="17" height="89"/>
  <rect class="cls-5" x="22" y="75" width="17" height="76"/>
  <rect class="cls-4" x="29" y="86" width="16" height="65"/>
  <rect class="cls-5" x="35" y="100" width="15" height="51"/>
  <rect class="cls-5" x="11" y="95" width="39" height="56"/>
  <rect class="cls-4" x="1006" y="386" width="18" height="111" transform="translate(2030 883) rotate(-180)"/>
  <rect class="cls-5" x="998" y="396" width="16" height="101" transform="translate(2012 893) rotate(-180)"/>
  <rect class="cls-4" x="989" y="408" width="17" height="89" transform="translate(1995 905) rotate(-180)"/>
  <rect class="cls-5" x="983" y="421" width="17" height="76" transform="translate(1983 918) rotate(-180)"/>
  <rect class="cls-4" x="977" y="432" width="16" height="65" transform="translate(1970 929) rotate(-180)"/>
  <rect class="cls-5" x="972" y="446" width="15" height="51" transform="translate(1959 943) rotate(-180)"/>
  <rect class="cls-5" x="972" y="441" width="39" height="56" transform="translate(1983 938) rotate(-180)"/>
  <rect class="cls-5" y="493" width="1024" height="91"/>
  <rect class="cls-6" x="14" y="509" width="41.64" height="22"/>
  <rect class="cls-6" x="14" y="548" width="41.64" height="22"/>
  <rect class="cls-6" x="77" y="509" width="41.64" height="22"/>
  <rect class="cls-6" x="77" y="548" width="41.64" height="22"/>
  <rect class="cls-6" x="140" y="509" width="41.64" height="22"/>
  <rect class="cls-6" x="140" y="548" width="41.64" height="22"/>
  <rect class="cls-6" x="204" y="509" width="41.64" height="22"/>
  <rect class="cls-6" x="204" y="548" width="41.64" height="22"/>
  <rect class="cls-6" x="267" y="509" width="41.64" height="22"/>
  <rect class="cls-6" x="267" y="548" width="41.64" height="22"/>
  <rect class="cls-6" x="331" y="509" width="41.64" height="22"/>
  <rect class="cls-6" x="331" y="548" width="41.64" height="22"/>
  <rect class="cls-6" x="394" y="509" width="41.64" height="22"/>
  <rect class="cls-6" x="394" y="548" width="41.64" height="22"/>
  <rect class="cls-6" x="457" y="509" width="41.64" height="22"/>
  <rect class="cls-6" x="457" y="548" width="41.64" height="22"/>
  <rect class="cls-6" x="520" y="509" width="41.64" height="22"/>
  <rect class="cls-6" x="520" y="548" width="41.64" height="22"/>
  <rect class="cls-6" x="584" y="509" width="41.64" height="22"/>
  <rect class="cls-6" x="584" y="548" width="41.64" height="22"/>
  <rect class="cls-6" x="646" y="509" width="41.64" height="22"/>
  <rect class="cls-6" x="646" y="548" width="41.64" height="22"/>
  <rect class="cls-6" x="711" y="509" width="41.64" height="22"/>
  <rect class="cls-6" x="711" y="548" width="41.64" height="22"/>
  <rect class="cls-6" x="774" y="509" width="41.64" height="22"/>
  <rect class="cls-6" x="774" y="548" width="41.64" height="22"/>
  <rect class="cls-6" x="835" y="509" width="41.64" height="22"/>
  <rect class="cls-6" x="835" y="548" width="41.64" height="22"/>
  <rect class="cls-6" x="896" y="506" width="41.64" height="22"/>
  <rect class="cls-6" x="896" y="548" width="41.64" height="22"/>
  <rect class="cls-6" x="959" y="506" width="41.64" height="22"/>
  <rect class="cls-6" x="959" y="548" width="41.64" height="22"/>
  <rect class="cls-4" y="384" width="16" height="111"/>
  <rect class="cls-5" x="8" y="394" width="16" height="101"/>
  <rect class="cls-4" x="16" y="406" width="17" height="89"/>
  <rect class="cls-5" x="22" y="419" width="17" height="76"/>
  <rect class="cls-4" x="29" y="430" width="16" height="65"/>
  <rect class="cls-5" x="35" y="444" width="15" height="51"/>
  <rect class="cls-5" x="11" y="439" width="39" height="56"/>
  <rect class="cls-4" x="1008" y="40" width="16" height="111" transform="translate(2032 191) rotate(-180)"/>
  <rect class="cls-5" x="1000" y="50" width="16" height="101" transform="translate(2016 201) rotate(-180)"/>
  <rect class="cls-4" x="991" y="62" width="17" height="89" transform="translate(1999 213) rotate(-180)"/>
  <rect class="cls-5" x="985" y="75" width="17" height="76" transform="translate(1987 226) rotate(-180)"/>
  <rect class="cls-4" x="979" y="86" width="16" height="65" transform="translate(1974 237) rotate(-180)"/>
  <rect class="cls-5" x="974" y="100" width="15" height="51" transform="translate(1963 251) rotate(-180)"/>
  <rect class="cls-5" x="974" y="95" width="39" height="56" transform="translate(1987 246) rotate(-180)"/>
</svg>
