<svg id="Layer_1" data-name="Layer 1" xmlns="http://www.w3.org/2000/svg" viewBox="0 0 169 227">
  <defs>
    <style>
      .cls-1 {
        fill: #878787;
      }

      .cls-2 {
        fill: #ffedcc;
      }

      .cls-3 {
        fill: #333;
      }

      .cls-4 {
        fill: #a5a0a0;
      }

      .cls-5 {
        fill: #fff;
      }

      .cls-6 {
        fill: #bcbcbc;
      }

      .cls-7 {
        fill: #919191;
      }
    </style>
  </defs>
  <title>trooper2</title>
  <g>
    <rect class="cls-1" x="102.61" y="17.46" width="6.03" height="5.82"/>
    <rect class="cls-1" x="90.54" y="40.74" width="6.03" height="5.82"/>
    <rect class="cls-1" x="90.54" y="46.56" width="6.03" height="5.82"/>
    <rect class="cls-1" x="90.54" y="52.38" width="6.03" height="5.83"/>
    <rect class="cls-1" x="90.54" y="58.21" width="6.03" height="5.82"/>
    <rect class="cls-1" x="96.57" y="17.46" width="6.04" height="5.82"/>
    <rect class="cls-1" x="90.54" y="23.28" width="6.03" height="5.82"/>
    <rect class="cls-1" x="90.54" y="17.46" width="6.03" height="5.82"/>
    <rect class="cls-1" x="90.54" y="29.1" width="6.03" height="5.82"/>
    <rect class="cls-1" x="90.54" y="34.92" width="6.03" height="5.82"/>
    <rect class="cls-1" x="108.64" y="81.49" width="6.04" height="5.82"/>
    <rect class="cls-1" x="108.64" y="69.85" width="6.04" height="5.82"/>
    <rect class="cls-1" x="108.64" y="75.67" width="6.04" height="5.82"/>
    <rect class="cls-1" x="108.64" y="64.03" width="6.04" height="5.82"/>
    <rect class="cls-1" x="108.64" y="58.21" width="6.04" height="5.82"/>
    <rect class="cls-1" x="108.64" y="52.38" width="6.04" height="5.83"/>
    <rect class="cls-1" x="108.64" y="40.74" width="6.04" height="5.82"/>
    <rect class="cls-1" x="108.64" y="34.92" width="6.04" height="5.82"/>
    <rect class="cls-1" x="108.64" y="46.56" width="6.04" height="5.82"/>
    <rect class="cls-1" x="108.64" y="29.1" width="6.04" height="5.82"/>
    <rect class="cls-1" x="108.64" y="23.28" width="6.04" height="5.82"/>
    <rect class="cls-1" x="108.64" y="17.46" width="6.04" height="5.82"/>
    <rect class="cls-1" y="87.31" width="6.04" height="5.82"/>
    <rect class="cls-1" x="18.11" y="46.56" width="6.03" height="5.82"/>
    <rect class="cls-1" x="18.11" y="52.38" width="6.03" height="5.83"/>
    <rect class="cls-1" x="18.11" y="58.21" width="6.03" height="5.82"/>
    <rect class="cls-1" x="18.11" y="40.74" width="6.03" height="5.82"/>
    <rect class="cls-1" x="18.11" y="34.92" width="6.03" height="5.82"/>
    <rect class="cls-1" x="18.11" y="29.1" width="6.03" height="5.82"/>
    <rect class="cls-1" x="18.11" y="23.28" width="6.03" height="5.82"/>
    <rect class="cls-1" x="18.11" y="17.46" width="6.03" height="5.82"/>
    <rect class="cls-1" x="12.07" y="17.46" width="6.04" height="5.82"/>
    <rect class="cls-1" y="81.49" width="6.04" height="5.82"/>
    <rect class="cls-1" x="6.04" y="17.46" width="6.03" height="5.82"/>
    <rect class="cls-1" y="23.28" width="6.04" height="5.82"/>
    <rect class="cls-1" y="29.1" width="6.04" height="5.82"/>
    <rect class="cls-1" y="64.03" width="6.04" height="5.82"/>
    <rect class="cls-1" y="40.74" width="6.04" height="5.82"/>
    <rect class="cls-1" y="58.21" width="6.04" height="5.82"/>
    <rect class="cls-1" y="46.56" width="6.04" height="5.82"/>
    <rect class="cls-1" y="17.46" width="6.04" height="5.82"/>
    <rect class="cls-1" y="34.92" width="6.04" height="5.82"/>
    <rect class="cls-1" y="69.85" width="6.04" height="5.82"/>
    <rect class="cls-1" y="75.67" width="6.04" height="5.82"/>
    <rect class="cls-1" y="52.38" width="6.04" height="5.83"/>
    <rect class="cls-2" x="12.07" y="69.85" width="6.04" height="5.82"/>
    <rect class="cls-2" x="12.07" y="64.03" width="6.04" height="5.82"/>
    <rect class="cls-2" x="12.07" y="58.21" width="6.04" height="5.82"/>
    <rect class="cls-2" x="12.07" y="52.38" width="6.04" height="5.83"/>
    <rect class="cls-2" x="12.07" y="40.74" width="6.04" height="5.82"/>
    <rect class="cls-2" x="12.07" y="46.56" width="6.04" height="5.82"/>
    <rect class="cls-2" x="12.07" y="34.92" width="6.04" height="5.82"/>
    <rect class="cls-2" x="12.07" y="29.1" width="6.04" height="5.82"/>
    <rect class="cls-2" x="12.07" y="23.28" width="6.04" height="5.82"/>
    <rect class="cls-2" x="6.04" y="23.28" width="6.03" height="5.82"/>
    <rect class="cls-2" x="6.04" y="29.1" width="6.03" height="5.82"/>
    <rect class="cls-2" x="6.04" y="34.92" width="6.03" height="5.82"/>
    <rect class="cls-2" x="6.04" y="40.74" width="6.03" height="5.82"/>
    <rect class="cls-2" x="6.04" y="46.56" width="6.03" height="5.82"/>
    <rect class="cls-2" x="6.04" y="52.38" width="6.03" height="5.83"/>
    <rect class="cls-2" x="6.04" y="58.21" width="6.03" height="5.82"/>
    <rect class="cls-2" x="6.04" y="64.03" width="6.03" height="5.82"/>
    <rect class="cls-2" x="6.04" y="69.85" width="6.03" height="5.82"/>
    <rect class="cls-2" x="102.61" y="40.74" width="6.03" height="5.82"/>
    <rect class="cls-2" x="102.61" y="34.92" width="6.03" height="5.82"/>
    <rect class="cls-2" x="102.61" y="29.1" width="6.03" height="5.82"/>
    <rect class="cls-2" x="102.61" y="23.28" width="6.03" height="5.82"/>
    <rect class="cls-2" x="102.61" y="58.21" width="6.03" height="5.82"/>
    <rect class="cls-2" x="102.61" y="52.38" width="6.03" height="5.83"/>
    <rect class="cls-2" x="102.61" y="46.56" width="6.03" height="5.82"/>
    <rect class="cls-2" x="102.61" y="69.85" width="6.03" height="5.82"/>
    <rect class="cls-2" x="102.61" y="64.03" width="6.03" height="5.82"/>
    <rect class="cls-2" x="96.57" y="29.1" width="6.04" height="5.82"/>
    <rect class="cls-2" x="96.57" y="64.03" width="6.04" height="5.82"/>
    <rect class="cls-2" x="96.57" y="58.21" width="6.04" height="5.82"/>
    <rect class="cls-2" x="96.57" y="52.38" width="6.04" height="5.83"/>
    <rect class="cls-2" x="96.57" y="46.56" width="6.04" height="5.82"/>
    <rect class="cls-2" x="96.57" y="40.74" width="6.04" height="5.82"/>
    <rect class="cls-2" x="96.57" y="69.85" width="6.04" height="5.82"/>
    <rect class="cls-2" x="96.57" y="34.92" width="6.04" height="5.82"/>
    <rect class="cls-2" x="96.57" y="23.28" width="6.04" height="5.82"/>
    <rect class="cls-2" x="102.61" y="75.67" width="6.03" height="5.82"/>
    <rect class="cls-1" x="24.14" y="93.13" width="6.04" height="5.82"/>
    <rect class="cls-3" x="24.14" y="87.31" width="6.04" height="5.82"/>
    <rect class="cls-3" x="18.11" y="87.31" width="6.03" height="5.82"/>
    <rect class="cls-3" x="12.07" y="87.31" width="6.04" height="5.82"/>
    <rect class="cls-3" x="6.04" y="116.41" width="6.03" height="5.82"/>
    <rect class="cls-3" x="90.54" y="116.41" width="6.03" height="5.82"/>
    <rect class="cls-3" x="96.57" y="116.41" width="6.04" height="5.82"/>
    <rect class="cls-3" x="162.96" y="93.13" width="6.04" height="5.82"/>
    <rect class="cls-3" x="162.96" y="87.31" width="6.04" height="5.82"/>
    <rect class="cls-3" x="156.93" y="93.13" width="6.03" height="5.82"/>
    <rect class="cls-3" x="156.93" y="87.31" width="6.03" height="5.82"/>
    <rect class="cls-3" x="150.89" y="93.13" width="6.04" height="5.82"/>
    <rect class="cls-3" x="150.89" y="87.31" width="6.04" height="5.82"/>
    <rect class="cls-3" x="144.86" y="98.95" width="6.03" height="5.82"/>
    <rect class="cls-3" x="144.86" y="93.13" width="6.03" height="5.82"/>
    <rect class="cls-3" x="144.86" y="87.31" width="6.03" height="5.82"/>
    <rect class="cls-3" x="138.82" y="98.95" width="6.04" height="5.82"/>
    <rect class="cls-4" x="138.82" y="93.13" width="6.04" height="5.82"/>
    <rect class="cls-3" x="138.82" y="87.31" width="6.04" height="5.82"/>
    <rect class="cls-3" x="132.79" y="104.77" width="6.03" height="5.82"/>
    <rect class="cls-3" x="132.79" y="98.95" width="6.03" height="5.82"/>
    <rect class="cls-4" x="132.79" y="93.13" width="6.03" height="5.82"/>
    <rect class="cls-3" x="132.79" y="87.31" width="6.03" height="5.82"/>
    <rect class="cls-3" x="126.75" y="104.77" width="6.04" height="5.82"/>
    <rect class="cls-4" x="126.75" y="98.95" width="6.04" height="5.82"/>
    <rect class="cls-4" x="126.75" y="93.13" width="6.04" height="5.82"/>
    <rect class="cls-3" x="126.75" y="87.31" width="6.04" height="5.82"/>
    <rect class="cls-3" x="120.71" y="104.77" width="6.04" height="5.82"/>
    <rect class="cls-4" x="120.71" y="98.95" width="6.04" height="5.82"/>
    <rect class="cls-1" x="120.71" y="93.13" width="6.04" height="5.82"/>
    <rect class="cls-3" x="120.71" y="87.31" width="6.04" height="5.82"/>
    <rect class="cls-3" x="114.68" y="104.77" width="6.03" height="5.82"/>
    <rect class="cls-4" x="114.68" y="98.95" width="6.03" height="5.82"/>
    <rect class="cls-4" x="114.68" y="93.13" width="6.03" height="5.82"/>
    <rect class="cls-3" x="114.68" y="87.31" width="6.03" height="5.82"/>
    <rect class="cls-5" x="108.64" y="221.18" width="6.04" height="5.82"/>
    <rect class="cls-5" x="108.64" y="215.36" width="6.04" height="5.82"/>
    <rect class="cls-3" x="108.64" y="110.59" width="6.04" height="5.82"/>
    <rect class="cls-3" x="108.64" y="104.77" width="6.04" height="5.82"/>
    <rect class="cls-3" x="108.64" y="98.95" width="6.04" height="5.82"/>
    <rect class="cls-4" x="108.64" y="93.13" width="6.04" height="5.82"/>
    <rect class="cls-3" x="108.64" y="87.31" width="6.04" height="5.82"/>
    <rect class="cls-5" x="102.61" y="221.18" width="6.03" height="5.82"/>
    <rect class="cls-5" x="102.61" y="215.36" width="6.03" height="5.82"/>
    <rect class="cls-3" x="102.61" y="116.41" width="6.03" height="5.82"/>
    <rect class="cls-3" x="102.61" y="110.59" width="6.03" height="5.82"/>
    <rect class="cls-3" x="102.61" y="104.77" width="6.03" height="5.82"/>
    <rect class="cls-4" x="102.61" y="98.95" width="6.03" height="5.82"/>
    <rect class="cls-4" x="102.61" y="93.13" width="6.03" height="5.82"/>
    <rect class="cls-3" x="102.61" y="87.31" width="6.03" height="5.82"/>
    <rect class="cls-2" x="102.61" y="81.49" width="6.03" height="5.82"/>
    <rect class="cls-5" x="96.57" y="221.18" width="6.04" height="5.82"/>
    <rect class="cls-5" x="96.57" y="215.36" width="6.04" height="5.82"/>
    <rect class="cls-5" x="96.57" y="209.54" width="6.04" height="5.82"/>
    <rect class="cls-5" x="96.57" y="203.72" width="6.04" height="5.82"/>
    <rect class="cls-5" x="96.57" y="197.9" width="6.04" height="5.82"/>
    <rect class="cls-5" x="96.57" y="180.44" width="6.04" height="5.82"/>
    <rect class="cls-5" x="96.57" y="168.79" width="6.04" height="5.83"/>
    <rect class="cls-5" x="96.57" y="162.97" width="6.04" height="5.82"/>
    <rect class="cls-3" x="96.57" y="110.59" width="6.04" height="5.82"/>
    <rect class="cls-3" x="96.57" y="104.77" width="6.04" height="5.82"/>
    <rect class="cls-4" x="96.57" y="98.95" width="6.04" height="5.82"/>
    <rect class="cls-1" x="96.57" y="93.13" width="6.04" height="5.82"/>
    <rect class="cls-3" x="96.57" y="87.31" width="6.04" height="5.82"/>
    <rect class="cls-2" x="96.57" y="81.49" width="6.04" height="5.82"/>
    <rect class="cls-2" x="96.57" y="75.67" width="6.04" height="5.82"/>
    <rect class="cls-5" x="90.54" y="221.18" width="6.03" height="5.82"/>
    <rect class="cls-5" x="90.54" y="215.36" width="6.03" height="5.82"/>
    <rect class="cls-5" x="90.54" y="209.54" width="6.03" height="5.82"/>
    <rect class="cls-5" x="90.54" y="203.72" width="6.03" height="5.82"/>
    <rect class="cls-5" x="90.54" y="197.9" width="6.03" height="5.82"/>
    <rect x="90.54" y="192.08" width="6.03" height="5.82"/>
    <rect x="90.54" y="186.26" width="6.03" height="5.82"/>
    <rect x="90.54" y="180.44" width="6.03" height="5.82"/>
    <rect x="90.54" y="174.62" width="6.03" height="5.82"/>
    <rect x="90.54" y="168.79" width="6.03" height="5.83"/>
    <rect x="90.54" y="162.97" width="6.03" height="5.82"/>
    <rect x="90.54" y="157.15" width="6.03" height="5.82"/>
    <rect x="90.54" y="151.33" width="6.03" height="5.82"/>
    <rect x="90.54" y="145.51" width="6.03" height="5.82"/>
    <rect class="cls-3" x="90.54" y="110.59" width="6.03" height="5.82"/>
    <rect class="cls-3" x="90.54" y="104.77" width="6.03" height="5.82"/>
    <rect class="cls-4" x="90.54" y="98.95" width="6.03" height="5.82"/>
    <rect class="cls-4" x="90.54" y="93.13" width="6.03" height="5.82"/>
    <rect class="cls-3" x="90.54" y="87.31" width="6.03" height="5.82"/>
    <rect class="cls-2" x="90.54" y="81.49" width="6.03" height="5.82"/>
    <rect class="cls-2" x="90.54" y="75.67" width="6.03" height="5.82"/>
    <rect class="cls-3" x="90.54" y="69.85" width="6.03" height="5.82"/>
    <rect class="cls-3" x="90.54" y="64.03" width="6.03" height="5.82"/>
    <rect class="cls-5" x="84.5" y="221.18" width="6.04" height="5.82"/>
    <rect class="cls-5" x="84.5" y="215.36" width="6.04" height="5.82"/>
    <rect class="cls-5" x="84.5" y="209.54" width="6.04" height="5.82"/>
    <rect class="cls-5" x="84.5" y="203.72" width="6.04" height="5.82"/>
    <rect x="84.5" y="197.9" width="6.04" height="5.82"/>
    <rect x="84.5" y="192.08" width="6.04" height="5.82"/>
    <rect class="cls-6" x="84.5" y="186.26" width="6.04" height="5.82"/>
    <rect class="cls-6" x="84.5" y="180.44" width="6.04" height="5.82"/>
    <rect class="cls-6" x="84.5" y="174.62" width="6.04" height="5.82"/>
    <rect class="cls-6" x="84.5" y="168.79" width="6.04" height="5.83"/>
    <rect class="cls-6" x="84.5" y="162.97" width="6.04" height="5.82"/>
    <rect class="cls-6" x="84.5" y="157.15" width="6.04" height="5.82"/>
    <rect class="cls-3" x="84.5" y="151.33" width="6.04" height="5.82"/>
    <rect x="84.5" y="145.51" width="6.04" height="5.82"/>
    <rect class="cls-7" x="84.5" y="133.87" width="6.04" height="5.82"/>
    <rect class="cls-7" x="84.5" y="128.05" width="6.04" height="5.82"/>
    <rect class="cls-7" x="84.5" y="122.23" width="6.04" height="5.82"/>
    <rect class="cls-3" x="84.5" y="116.41" width="6.04" height="5.82"/>
    <rect class="cls-3" x="84.5" y="110.59" width="6.04" height="5.82"/>
    <rect class="cls-3" x="84.5" y="104.77" width="6.04" height="5.82"/>
    <rect class="cls-3" x="84.5" y="98.95" width="6.04" height="5.82"/>
    <rect class="cls-4" x="84.5" y="93.13" width="6.04" height="5.82"/>
    <rect class="cls-3" x="84.5" y="87.31" width="6.04" height="5.82"/>
    <rect class="cls-2" x="84.5" y="81.49" width="6.04" height="5.82"/>
    <rect class="cls-2" x="84.5" y="75.67" width="6.04" height="5.82"/>
    <rect class="cls-3" x="84.5" y="69.85" width="6.04" height="5.82"/>
    <rect class="cls-1" x="84.5" y="64.03" width="6.04" height="5.82"/>
    <rect class="cls-3" x="84.5" y="58.21" width="6.04" height="5.82"/>
    <rect x="78.46" y="221.18" width="6.04" height="5.82"/>
    <rect x="78.46" y="215.36" width="6.04" height="5.82"/>
    <rect class="cls-5" x="78.46" y="209.54" width="6.04" height="5.82"/>
    <rect x="78.46" y="203.72" width="6.04" height="5.82"/>
    <rect x="78.46" y="197.9" width="6.04" height="5.82"/>
    <rect class="cls-6" x="78.46" y="192.08" width="6.04" height="5.82"/>
    <rect class="cls-3" x="78.46" y="186.26" width="6.04" height="5.82"/>
    <rect class="cls-3" x="78.46" y="180.44" width="6.04" height="5.82"/>
    <rect class="cls-3" x="78.46" y="174.62" width="6.04" height="5.82"/>
    <rect class="cls-3" x="78.46" y="168.79" width="6.04" height="5.83"/>
    <rect class="cls-3" x="78.46" y="162.97" width="6.04" height="5.82"/>
    <rect class="cls-3" x="78.46" y="157.15" width="6.04" height="5.82"/>
    <rect class="cls-3" x="78.46" y="151.33" width="6.04" height="5.82"/>
    <rect x="78.46" y="145.51" width="6.04" height="5.82"/>
    <rect x="78.46" y="139.69" width="6.04" height="5.82"/>
    <rect class="cls-7" x="78.46" y="133.87" width="6.04" height="5.82"/>
    <rect class="cls-3" x="78.46" y="128.05" width="6.04" height="5.82"/>
    <rect class="cls-3" x="78.46" y="122.23" width="6.04" height="5.82"/>
    <rect class="cls-3" x="78.46" y="116.41" width="6.04" height="5.82"/>
    <rect class="cls-3" x="78.46" y="110.59" width="6.04" height="5.82"/>
    <rect class="cls-3" x="78.46" y="104.77" width="6.04" height="5.82"/>
    <rect class="cls-4" x="78.46" y="98.95" width="6.04" height="5.82"/>
    <rect class="cls-4" x="78.46" y="93.13" width="6.04" height="5.82"/>
    <rect class="cls-3" x="78.46" y="87.31" width="6.04" height="5.82"/>
    <rect class="cls-3" x="78.46" y="81.49" width="6.04" height="5.82"/>
    <rect class="cls-3" x="78.46" y="75.67" width="6.04" height="5.82"/>
    <rect class="cls-1" x="78.46" y="69.85" width="6.04" height="5.82"/>
    <rect class="cls-1" x="78.46" y="64.03" width="6.04" height="5.82"/>
    <rect class="cls-1" x="78.46" y="58.21" width="6.04" height="5.82"/>
    <rect class="cls-3" x="78.46" y="52.38" width="6.04" height="5.83"/>
    <rect class="cls-3" x="78.46" y="40.74" width="6.04" height="5.82"/>
    <rect class="cls-3" x="78.46" y="34.92" width="6.04" height="5.82"/>
    <rect class="cls-3" x="78.46" y="29.1" width="6.04" height="5.82"/>
    <rect class="cls-3" x="78.46" y="23.28" width="6.04" height="5.82"/>
    <rect class="cls-3" x="78.46" y="17.46" width="6.04" height="5.82"/>
    <rect class="cls-3" x="78.46" y="11.64" width="6.04" height="5.82"/>
    <rect x="72.43" y="221.18" width="6.03" height="5.82"/>
    <rect class="cls-3" x="72.43" y="215.36" width="6.03" height="5.82"/>
    <rect x="72.43" y="209.54" width="6.03" height="5.82"/>
    <rect x="72.43" y="203.72" width="6.03" height="5.82"/>
    <rect class="cls-6" x="72.43" y="197.9" width="6.03" height="5.82"/>
    <rect class="cls-3" x="72.43" y="192.08" width="6.03" height="5.82"/>
    <rect x="72.43" y="186.26" width="6.03" height="5.82"/>
    <rect x="72.43" y="180.44" width="6.03" height="5.82"/>
    <rect x="72.43" y="174.62" width="6.03" height="5.82"/>
    <rect x="72.43" y="168.79" width="6.03" height="5.83"/>
    <rect x="72.43" y="162.97" width="6.03" height="5.82"/>
    <rect class="cls-3" x="72.43" y="157.15" width="6.03" height="5.82"/>
    <rect class="cls-3" x="72.43" y="151.33" width="6.03" height="5.82"/>
    <rect class="cls-3" x="72.43" y="145.51" width="6.03" height="5.82"/>
    <rect class="cls-3" x="72.43" y="139.69" width="6.03" height="5.82"/>
    <rect class="cls-7" x="72.43" y="133.87" width="6.03" height="5.82"/>
    <rect class="cls-7" x="72.43" y="128.05" width="6.03" height="5.82"/>
    <rect class="cls-7" x="72.43" y="122.23" width="6.03" height="5.82"/>
    <rect class="cls-3" x="72.43" y="116.41" width="6.03" height="5.82"/>
    <rect class="cls-3" x="72.43" y="110.59" width="6.03" height="5.82"/>
    <rect class="cls-3" x="72.43" y="104.77" width="6.03" height="5.82"/>
    <rect class="cls-4" x="72.43" y="98.95" width="6.03" height="5.82"/>
    <rect class="cls-1" x="72.43" y="93.13" width="6.03" height="5.82"/>
    <rect class="cls-3" x="72.43" y="87.31" width="6.03" height="5.82"/>
    <rect class="cls-3" x="72.43" y="81.49" width="6.03" height="5.82"/>
    <rect class="cls-1" x="72.43" y="75.67" width="6.03" height="5.82"/>
    <rect class="cls-1" x="72.43" y="69.85" width="6.03" height="5.82"/>
    <rect class="cls-3" x="72.43" y="64.03" width="6.03" height="5.82"/>
    <rect class="cls-3" x="72.43" y="58.21" width="6.03" height="5.82"/>
    <rect class="cls-3" x="72.43" y="52.38" width="6.03" height="5.83"/>
    <rect class="cls-3" x="72.43" y="46.56" width="6.03" height="5.82"/>
    <rect class="cls-3" x="72.43" y="40.74" width="6.03" height="5.82"/>
    <rect class="cls-3" x="72.43" y="34.92" width="6.03" height="5.82"/>
    <rect class="cls-3" x="72.43" y="29.1" width="6.03" height="5.82"/>
    <rect class="cls-3" x="72.43" y="23.28" width="6.03" height="5.82"/>
    <rect class="cls-3" x="72.43" y="17.46" width="6.03" height="5.82"/>
    <rect class="cls-3" x="72.43" y="11.64" width="6.03" height="5.82"/>
    <rect class="cls-3" x="72.43" y="5.82" width="6.03" height="5.82"/>
    <rect x="66.39" y="221.18" width="6.04" height="5.82"/>
    <rect class="cls-3" x="66.39" y="215.36" width="6.04" height="5.82"/>
    <rect class="cls-3" x="66.39" y="209.54" width="6.04" height="5.82"/>
    <rect class="cls-6" x="66.39" y="203.72" width="6.04" height="5.82"/>
    <rect class="cls-3" x="66.39" y="197.9" width="6.04" height="5.82"/>
    <rect x="66.39" y="192.08" width="6.04" height="5.82"/>
    <rect x="66.39" y="186.26" width="6.04" height="5.82"/>
    <rect class="cls-5" x="66.39" y="168.79" width="6.04" height="5.83"/>
    <rect x="66.39" y="162.97" width="6.04" height="5.82"/>
    <rect x="66.39" y="157.15" width="6.04" height="5.82"/>
    <rect x="66.39" y="151.33" width="6.04" height="5.82"/>
    <rect x="66.39" y="145.51" width="6.04" height="5.82"/>
    <rect class="cls-3" x="66.39" y="139.69" width="6.04" height="5.82"/>
    <rect class="cls-3" x="66.39" y="133.87" width="6.04" height="5.82"/>
    <rect class="cls-3" x="66.39" y="128.05" width="6.04" height="5.82"/>
    <rect class="cls-3" x="66.39" y="122.23" width="6.04" height="5.82"/>
    <rect class="cls-3" x="66.39" y="116.41" width="6.04" height="5.82"/>
    <rect class="cls-3" x="66.39" y="110.59" width="6.04" height="5.82"/>
    <rect class="cls-3" x="66.39" y="104.77" width="6.04" height="5.82"/>
    <rect class="cls-4" x="66.39" y="98.95" width="6.04" height="5.82"/>
    <rect class="cls-4" x="66.39" y="93.13" width="6.04" height="5.82"/>
    <rect class="cls-3" x="66.39" y="87.31" width="6.04" height="5.82"/>
    <rect class="cls-3" x="66.39" y="81.49" width="6.04" height="5.82"/>
    <rect class="cls-1" x="66.39" y="75.67" width="6.04" height="5.82"/>
    <rect class="cls-1" x="66.39" y="69.85" width="6.04" height="5.82"/>
    <rect class="cls-3" x="66.39" y="64.03" width="6.04" height="5.82"/>
    <rect class="cls-3" x="66.39" y="58.21" width="6.04" height="5.82"/>
    <rect class="cls-3" x="66.39" y="52.38" width="6.04" height="5.83"/>
    <rect class="cls-3" x="66.39" y="46.56" width="6.04" height="5.82"/>
    <rect class="cls-3" x="66.39" y="40.74" width="6.04" height="5.82"/>
    <rect class="cls-2" x="66.39" y="34.92" width="6.04" height="5.82"/>
    <rect class="cls-2" x="66.39" y="29.1" width="6.04" height="5.82"/>
    <rect class="cls-2" x="66.39" y="23.28" width="6.04" height="5.82"/>
    <rect class="cls-3" x="66.39" y="17.46" width="6.04" height="5.82"/>
    <rect class="cls-1" x="66.39" y="11.64" width="6.04" height="5.82"/>
    <rect class="cls-3" x="66.39" y="5.82" width="6.04" height="5.82"/>
    <rect class="cls-3" x="66.39" width="6.04" height="5.82"/>
    <rect x="60.36" y="221.18" width="6.03" height="5.82"/>
    <rect class="cls-6" x="60.36" y="215.36" width="6.03" height="5.82"/>
    <rect class="cls-3" x="60.36" y="209.54" width="6.03" height="5.82"/>
    <rect class="cls-3" x="60.36" y="203.72" width="6.03" height="5.82"/>
    <rect x="60.36" y="197.9" width="6.03" height="5.82"/>
    <rect x="60.36" y="192.08" width="6.03" height="5.82"/>
    <rect class="cls-5" x="60.36" y="162.97" width="6.03" height="5.82"/>
    <rect x="60.36" y="145.51" width="6.03" height="5.82"/>
    <rect x="60.36" y="139.69" width="6.03" height="5.82"/>
    <rect class="cls-3" x="60.36" y="133.87" width="6.03" height="5.82"/>
    <rect class="cls-3" x="60.36" y="128.05" width="6.03" height="5.82"/>
    <rect class="cls-1" x="60.36" y="122.23" width="6.03" height="5.82"/>
    <rect class="cls-3" x="60.36" y="116.41" width="6.03" height="5.82"/>
    <rect class="cls-3" x="60.36" y="110.59" width="6.03" height="5.82"/>
    <rect class="cls-3" x="60.36" y="104.77" width="6.03" height="5.82"/>
    <rect class="cls-3" x="60.36" y="98.95" width="6.03" height="5.82"/>
    <rect class="cls-4" x="60.36" y="93.13" width="6.03" height="5.82"/>
    <rect class="cls-3" x="60.36" y="87.31" width="6.03" height="5.82"/>
    <rect class="cls-3" x="60.36" y="81.49" width="6.03" height="5.82"/>
    <rect class="cls-1" x="60.36" y="75.67" width="6.03" height="5.82"/>
    <rect class="cls-3" x="60.36" y="69.85" width="6.03" height="5.82"/>
    <rect class="cls-1" x="60.36" y="64.03" width="6.03" height="5.82"/>
    <rect class="cls-1" x="60.36" y="58.21" width="6.03" height="5.82"/>
    <rect class="cls-1" x="60.36" y="52.38" width="6.03" height="5.83"/>
    <rect class="cls-1" x="60.36" y="46.56" width="6.03" height="5.82"/>
    <rect class="cls-2" x="60.36" y="40.74" width="6.03" height="5.82"/>
    <rect x="60.36" y="34.92" width="6.03" height="5.82"/>
    <rect class="cls-2" x="60.36" y="29.1" width="6.03" height="5.82"/>
    <rect x="60.36" y="23.28" width="6.03" height="5.82"/>
    <rect class="cls-3" x="60.36" y="17.46" width="6.03" height="5.82"/>
    <rect class="cls-3" x="60.36" y="11.64" width="6.03" height="5.82"/>
    <rect class="cls-1" x="60.36" y="5.82" width="6.03" height="5.82"/>
    <rect class="cls-3" x="60.36" width="6.03" height="5.82"/>
    <rect x="54.32" y="221.18" width="6.04" height="5.82"/>
    <rect class="cls-3" x="54.32" y="215.36" width="6.04" height="5.82"/>
    <rect class="cls-3" x="54.32" y="209.54" width="6.04" height="5.82"/>
    <rect x="54.32" y="203.72" width="6.04" height="5.82"/>
    <rect x="54.32" y="197.9" width="6.04" height="5.82"/>
    <rect x="54.32" y="133.87" width="6.04" height="5.82"/>
    <rect class="cls-3" x="54.32" y="128.05" width="6.04" height="5.82"/>
    <rect class="cls-1" x="54.32" y="122.23" width="6.04" height="5.82"/>
    <rect class="cls-3" x="54.32" y="116.41" width="6.04" height="5.82"/>
    <rect class="cls-3" x="54.32" y="110.59" width="6.04" height="5.82"/>
    <rect class="cls-3" x="54.32" y="104.77" width="6.04" height="5.82"/>
    <rect class="cls-4" x="54.32" y="98.95" width="6.04" height="5.82"/>
    <rect class="cls-4" x="54.32" y="93.13" width="6.04" height="5.82"/>
    <rect class="cls-3" x="54.32" y="87.31" width="6.04" height="5.82"/>
    <rect class="cls-3" x="54.32" y="81.49" width="6.04" height="5.82"/>
    <rect class="cls-1" x="54.32" y="75.67" width="6.04" height="5.82"/>
    <rect class="cls-3" x="54.32" y="69.85" width="6.04" height="5.82"/>
    <rect class="cls-1" x="54.32" y="64.03" width="6.04" height="5.82"/>
    <rect class="cls-1" x="54.32" y="58.21" width="6.04" height="5.82"/>
    <rect class="cls-1" x="54.32" y="52.38" width="6.04" height="5.83"/>
    <rect class="cls-1" x="54.32" y="46.56" width="6.04" height="5.82"/>
    <rect class="cls-2" x="54.32" y="40.74" width="6.04" height="5.82"/>
    <rect x="54.32" y="34.92" width="6.04" height="5.82"/>
    <rect class="cls-2" x="54.32" y="29.1" width="6.04" height="5.82"/>
    <rect class="cls-2" x="54.32" y="23.28" width="6.04" height="5.82"/>
    <rect class="cls-3" x="54.32" y="17.46" width="6.04" height="5.82"/>
    <rect class="cls-3" x="54.32" y="11.64" width="6.04" height="5.82"/>
    <rect class="cls-1" x="54.32" y="5.82" width="6.04" height="5.82"/>
    <rect class="cls-3" x="54.32" width="6.04" height="5.82"/>
    <rect x="48.29" y="221.18" width="6.03" height="5.82"/>
    <rect x="48.29" y="215.36" width="6.03" height="5.82"/>
    <rect x="48.29" y="209.54" width="6.03" height="5.82"/>
    <rect x="48.29" y="203.72" width="6.03" height="5.82"/>
    <rect x="48.29" y="192.08" width="6.03" height="5.82"/>
    <rect x="48.29" y="186.26" width="6.03" height="5.82"/>
    <rect x="48.29" y="180.44" width="6.03" height="5.82"/>
    <rect x="48.29" y="174.62" width="6.03" height="5.82"/>
    <rect x="48.29" y="168.79" width="6.03" height="5.83"/>
    <rect x="48.29" y="162.97" width="6.03" height="5.82"/>
    <rect x="48.29" y="157.15" width="6.03" height="5.82"/>
    <rect x="48.29" y="151.33" width="6.03" height="5.82"/>
    <rect x="48.29" y="145.51" width="6.03" height="5.82"/>
    <rect class="cls-3" x="48.29" y="133.87" width="6.03" height="5.82"/>
    <rect class="cls-3" x="48.29" y="128.05" width="6.03" height="5.82"/>
    <rect class="cls-3" x="48.29" y="122.23" width="6.03" height="5.82"/>
    <rect class="cls-3" x="48.29" y="116.41" width="6.03" height="5.82"/>
    <rect class="cls-3" x="48.29" y="110.59" width="6.03" height="5.82"/>
    <rect class="cls-3" x="48.29" y="104.77" width="6.03" height="5.82"/>
    <rect class="cls-4" x="48.29" y="98.95" width="6.03" height="5.82"/>
    <rect class="cls-1" x="48.29" y="93.13" width="6.03" height="5.82"/>
    <rect class="cls-3" x="48.29" y="87.31" width="6.03" height="5.82"/>
    <rect class="cls-3" x="48.29" y="81.49" width="6.03" height="5.82"/>
    <rect class="cls-1" x="48.29" y="75.67" width="6.03" height="5.82"/>
    <rect class="cls-3" x="48.29" y="69.85" width="6.03" height="5.82"/>
    <rect class="cls-1" x="48.29" y="64.03" width="6.03" height="5.82"/>
    <rect class="cls-1" x="48.29" y="58.21" width="6.03" height="5.82"/>
    <rect class="cls-1" x="48.29" y="52.38" width="6.03" height="5.83"/>
    <rect class="cls-1" x="48.29" y="46.56" width="6.03" height="5.82"/>
    <rect class="cls-2" x="48.29" y="40.74" width="6.03" height="5.82"/>
    <rect x="48.29" y="34.92" width="6.03" height="5.82"/>
    <rect class="cls-2" x="48.29" y="29.1" width="6.03" height="5.82"/>
    <rect x="48.29" y="23.28" width="6.03" height="5.82"/>
    <rect class="cls-3" x="48.29" y="17.46" width="6.03" height="5.82"/>
    <rect class="cls-3" x="48.29" y="11.64" width="6.03" height="5.82"/>
    <rect class="cls-1" x="48.29" y="5.82" width="6.03" height="5.82"/>
    <rect class="cls-3" x="48.29" width="6.03" height="5.82"/>
    <rect x="42.25" y="197.9" width="6.04" height="5.82"/>
    <rect x="42.25" y="192.08" width="6.04" height="5.82"/>
    <rect class="cls-6" x="42.25" y="186.26" width="6.04" height="5.82"/>
    <rect class="cls-6" x="42.25" y="180.44" width="6.04" height="5.82"/>
    <rect class="cls-6" x="42.25" y="174.62" width="6.04" height="5.82"/>
    <rect class="cls-6" x="42.25" y="168.79" width="6.04" height="5.83"/>
    <rect class="cls-6" x="42.25" y="162.97" width="6.04" height="5.82"/>
    <rect class="cls-6" x="42.25" y="157.15" width="6.04" height="5.82"/>
    <rect class="cls-3" x="42.25" y="151.33" width="6.04" height="5.82"/>
    <rect x="42.25" y="145.51" width="6.04" height="5.82"/>
    <rect x="42.25" y="139.69" width="6.04" height="5.82"/>
    <rect class="cls-3" x="42.25" y="133.87" width="6.04" height="5.82"/>
    <rect class="cls-3" x="42.25" y="128.05" width="6.04" height="5.82"/>
    <rect class="cls-3" x="42.25" y="122.23" width="6.04" height="5.82"/>
    <rect class="cls-3" x="42.25" y="116.41" width="6.04" height="5.82"/>
    <rect class="cls-3" x="42.25" y="110.59" width="6.04" height="5.82"/>
    <rect class="cls-3" x="42.25" y="104.77" width="6.04" height="5.82"/>
    <rect class="cls-4" x="42.25" y="98.95" width="6.04" height="5.82"/>
    <rect class="cls-4" x="42.25" y="93.13" width="6.04" height="5.82"/>
    <rect class="cls-3" x="42.25" y="87.31" width="6.04" height="5.82"/>
    <rect class="cls-3" x="42.25" y="81.49" width="6.04" height="5.82"/>
    <rect class="cls-1" x="42.25" y="75.67" width="6.04" height="5.82"/>
    <rect class="cls-1" x="42.25" y="69.85" width="6.04" height="5.82"/>
    <rect class="cls-3" x="42.25" y="64.03" width="6.04" height="5.82"/>
    <rect class="cls-3" x="42.25" y="58.21" width="6.04" height="5.82"/>
    <rect class="cls-3" x="42.25" y="52.38" width="6.04" height="5.83"/>
    <rect class="cls-3" x="42.25" y="46.56" width="6.04" height="5.82"/>
    <rect class="cls-3" x="42.25" y="40.74" width="6.04" height="5.82"/>
    <rect class="cls-2" x="42.25" y="34.92" width="6.04" height="5.82"/>
    <rect class="cls-2" x="42.25" y="29.1" width="6.04" height="5.82"/>
    <rect class="cls-2" x="42.25" y="23.28" width="6.04" height="5.82"/>
    <rect class="cls-3" x="42.25" y="17.46" width="6.04" height="5.82"/>
    <rect class="cls-1" x="42.25" y="11.64" width="6.04" height="5.82"/>
    <rect class="cls-3" x="42.25" y="5.82" width="6.04" height="5.82"/>
    <rect class="cls-3" x="42.25" width="6.04" height="5.82"/>
    <rect x="36.21" y="221.18" width="6.04" height="5.82"/>
    <rect x="36.21" y="215.36" width="6.04" height="5.82"/>
    <rect x="36.21" y="203.72" width="6.04" height="5.82"/>
    <rect x="36.21" y="197.9" width="6.04" height="5.82"/>
    <rect class="cls-6" x="36.21" y="192.08" width="6.04" height="5.82"/>
    <rect class="cls-3" x="36.21" y="186.26" width="6.04" height="5.82"/>
    <rect class="cls-3" x="36.21" y="180.44" width="6.04" height="5.82"/>
    <rect class="cls-3" x="36.21" y="174.62" width="6.04" height="5.82"/>
    <rect class="cls-3" x="36.21" y="168.79" width="6.04" height="5.83"/>
    <rect class="cls-3" x="36.21" y="162.97" width="6.04" height="5.82"/>
    <rect class="cls-3" x="36.21" y="157.15" width="6.04" height="5.82"/>
    <rect class="cls-3" x="36.21" y="151.33" width="6.04" height="5.82"/>
    <rect class="cls-3" x="36.21" y="145.51" width="6.04" height="5.82"/>
    <rect class="cls-3" x="36.21" y="139.69" width="6.04" height="5.82"/>
    <rect class="cls-7" x="36.21" y="133.87" width="6.04" height="5.82"/>
    <rect class="cls-7" x="36.21" y="128.05" width="6.04" height="5.82"/>
    <rect class="cls-7" x="36.21" y="122.23" width="6.04" height="5.82"/>
    <rect class="cls-3" x="36.21" y="116.41" width="6.04" height="5.82"/>
    <rect class="cls-3" x="36.21" y="110.59" width="6.04" height="5.82"/>
    <rect class="cls-3" x="36.21" y="104.77" width="6.04" height="5.82"/>
    <rect class="cls-3" x="36.21" y="98.95" width="6.04" height="5.82"/>
    <rect class="cls-4" x="36.21" y="93.13" width="6.04" height="5.82"/>
    <rect class="cls-3" x="36.21" y="87.31" width="6.04" height="5.82"/>
    <rect class="cls-3" x="36.21" y="81.49" width="6.04" height="5.82"/>
    <rect class="cls-1" x="36.21" y="75.67" width="6.04" height="5.82"/>
    <rect class="cls-1" x="36.21" y="69.85" width="6.04" height="5.82"/>
    <rect class="cls-3" x="36.21" y="64.03" width="6.04" height="5.82"/>
    <rect class="cls-3" x="36.21" y="58.21" width="6.04" height="5.82"/>
    <rect class="cls-3" x="36.21" y="52.38" width="6.04" height="5.83"/>
    <rect class="cls-3" x="36.21" y="46.56" width="6.04" height="5.82"/>
    <rect class="cls-3" x="36.21" y="40.74" width="6.04" height="5.82"/>
    <rect class="cls-3" x="36.21" y="34.92" width="6.04" height="5.82"/>
    <rect class="cls-3" x="36.21" y="29.1" width="6.04" height="5.82"/>
    <rect class="cls-3" x="36.21" y="23.28" width="6.04" height="5.82"/>
    <rect class="cls-3" x="36.21" y="17.46" width="6.04" height="5.82"/>
    <rect class="cls-3" x="36.21" y="11.64" width="6.04" height="5.82"/>
    <rect class="cls-3" x="36.21" y="5.82" width="6.04" height="5.82"/>
    <rect x="30.18" y="221.18" width="6.03" height="5.82"/>
    <rect class="cls-3" x="30.18" y="215.36" width="6.03" height="5.82"/>
    <rect x="30.18" y="209.54" width="6.03" height="5.82"/>
    <rect x="30.18" y="203.72" width="6.03" height="5.82"/>
    <rect class="cls-6" x="30.18" y="197.9" width="6.03" height="5.82"/>
    <rect class="cls-3" x="30.18" y="192.08" width="6.03" height="5.82"/>
    <rect x="30.18" y="186.26" width="6.03" height="5.82"/>
    <rect x="30.18" y="180.44" width="6.03" height="5.82"/>
    <rect x="30.18" y="174.62" width="6.03" height="5.82"/>
    <rect x="30.18" y="168.79" width="6.03" height="5.83"/>
    <rect x="30.18" y="162.97" width="6.03" height="5.82"/>
    <rect class="cls-3" x="30.18" y="157.15" width="6.03" height="5.82"/>
    <rect class="cls-3" x="30.18" y="151.33" width="6.03" height="5.82"/>
    <rect class="cls-3" x="30.18" y="145.51" width="6.03" height="5.82"/>
    <rect class="cls-3" x="30.18" y="139.69" width="6.03" height="5.82"/>
    <rect class="cls-7" x="30.18" y="133.87" width="6.03" height="5.82"/>
    <rect class="cls-3" x="30.18" y="128.05" width="6.03" height="5.82"/>
    <rect class="cls-3" x="30.18" y="122.23" width="6.03" height="5.82"/>
    <rect class="cls-3" x="30.18" y="116.41" width="6.03" height="5.82"/>
    <rect class="cls-3" x="30.18" y="110.59" width="6.03" height="5.82"/>
    <rect class="cls-3" x="30.18" y="104.77" width="6.03" height="5.82"/>
    <rect class="cls-4" x="30.18" y="98.95" width="6.03" height="5.82"/>
    <rect class="cls-4" x="30.18" y="93.13" width="6.03" height="5.82"/>
    <rect class="cls-3" x="30.18" y="87.31" width="6.03" height="5.82"/>
    <rect class="cls-3" x="30.18" y="81.49" width="6.03" height="5.82"/>
    <rect class="cls-3" x="30.18" y="75.67" width="6.03" height="5.82"/>
    <rect class="cls-1" x="30.18" y="69.85" width="6.03" height="5.82"/>
    <rect class="cls-1" x="30.18" y="64.03" width="6.03" height="5.82"/>
    <rect class="cls-1" x="30.18" y="58.21" width="6.03" height="5.82"/>
    <rect class="cls-3" x="30.18" y="52.38" width="6.03" height="5.83"/>
    <rect class="cls-3" x="30.18" y="40.74" width="6.03" height="5.82"/>
    <rect class="cls-3" x="30.18" y="34.92" width="6.03" height="5.82"/>
    <rect class="cls-3" x="30.18" y="29.1" width="6.03" height="5.82"/>
    <rect class="cls-3" x="30.18" y="23.28" width="6.03" height="5.82"/>
    <rect class="cls-3" x="30.18" y="17.46" width="6.03" height="5.82"/>
    <rect class="cls-3" x="30.18" y="11.64" width="6.03" height="5.82"/>
    <rect x="24.14" y="221.18" width="6.04" height="5.82"/>
    <rect class="cls-3" x="24.14" y="215.36" width="6.04" height="5.82"/>
    <rect class="cls-3" x="24.14" y="209.54" width="6.04" height="5.82"/>
    <rect class="cls-6" x="24.14" y="203.72" width="6.04" height="5.82"/>
    <rect class="cls-3" x="24.14" y="197.9" width="6.04" height="5.82"/>
    <rect x="24.14" y="192.08" width="6.04" height="5.82"/>
    <rect x="24.14" y="186.26" width="6.04" height="5.82"/>
    <rect x="24.14" y="162.97" width="6.04" height="5.82"/>
    <rect x="24.14" y="157.15" width="6.04" height="5.82"/>
    <rect x="24.14" y="151.33" width="6.04" height="5.82"/>
    <rect x="24.14" y="145.51" width="6.04" height="5.82"/>
    <rect class="cls-3" x="24.14" y="139.69" width="6.04" height="5.82"/>
    <rect class="cls-7" x="24.14" y="133.87" width="6.04" height="5.82"/>
    <rect class="cls-7" x="24.14" y="128.05" width="6.04" height="5.82"/>
    <rect class="cls-7" x="24.14" y="122.23" width="6.04" height="5.82"/>
    <rect class="cls-3" x="24.14" y="116.41" width="6.04" height="5.82"/>
    <rect class="cls-3" x="24.14" y="110.59" width="6.04" height="5.82"/>
    <rect class="cls-3" x="24.14" y="104.77" width="6.04" height="5.82"/>
    <rect class="cls-4" x="24.14" y="98.95" width="6.04" height="5.82"/>
    <rect class="cls-2" x="24.14" y="81.49" width="6.04" height="5.82"/>
    <rect class="cls-2" x="24.14" y="75.67" width="6.04" height="5.82"/>
    <rect class="cls-3" x="24.14" y="69.85" width="6.04" height="5.82"/>
    <rect class="cls-1" x="24.14" y="64.03" width="6.04" height="5.82"/>
    <rect class="cls-3" x="24.14" y="58.21" width="6.04" height="5.82"/>
    <rect x="18.11" y="221.18" width="6.03" height="5.82"/>
    <rect class="cls-6" x="18.11" y="215.36" width="6.03" height="5.82"/>
    <rect class="cls-3" x="18.11" y="209.54" width="6.03" height="5.82"/>
    <rect class="cls-3" x="18.11" y="203.72" width="6.03" height="5.82"/>
    <rect x="18.11" y="197.9" width="6.03" height="5.82"/>
    <rect x="18.11" y="145.51" width="6.03" height="5.82"/>
    <rect x="18.11" y="139.69" width="6.03" height="5.82"/>
    <rect class="cls-3" x="18.11" y="133.87" width="6.03" height="5.82"/>
    <rect class="cls-3" x="18.11" y="128.05" width="6.03" height="5.82"/>
    <rect class="cls-3" x="18.11" y="122.23" width="6.03" height="5.82"/>
    <rect class="cls-3" x="18.11" y="116.41" width="6.03" height="5.82"/>
    <rect class="cls-3" x="18.11" y="110.59" width="6.03" height="5.82"/>
    <rect class="cls-3" x="18.11" y="104.77" width="6.03" height="5.82"/>
    <rect class="cls-4" x="18.11" y="98.95" width="6.03" height="5.82"/>
    <rect class="cls-4" x="18.11" y="93.13" width="6.03" height="5.82"/>
    <rect class="cls-2" x="18.11" y="81.49" width="6.03" height="5.82"/>
    <rect class="cls-2" x="18.11" y="75.67" width="6.03" height="5.82"/>
    <rect class="cls-3" x="18.11" y="69.85" width="6.03" height="5.82"/>
    <rect class="cls-3" x="18.11" y="64.03" width="6.03" height="5.82"/>
    <rect x="12.07" y="221.18" width="6.04" height="5.82"/>
    <rect class="cls-3" x="12.07" y="215.36" width="6.04" height="5.82"/>
    <rect class="cls-3" x="12.07" y="209.54" width="6.04" height="5.82"/>
    <rect x="12.07" y="203.72" width="6.04" height="5.82"/>
    <rect class="cls-3" x="12.07" y="116.41" width="6.04" height="5.82"/>
    <rect class="cls-3" x="12.07" y="110.59" width="6.04" height="5.82"/>
    <rect class="cls-3" x="12.07" y="104.77" width="6.04" height="5.82"/>
    <rect class="cls-3" x="12.07" y="98.95" width="6.04" height="5.82"/>
    <rect class="cls-4" x="12.07" y="93.13" width="6.04" height="5.82"/>
    <rect class="cls-2" x="12.07" y="81.49" width="6.04" height="5.82"/>
    <rect class="cls-2" x="12.07" y="75.67" width="6.04" height="5.82"/>
    <rect x="6.04" y="221.18" width="6.03" height="5.82"/>
    <rect x="6.04" y="215.36" width="6.03" height="5.82"/>
    <rect x="6.04" y="209.54" width="6.03" height="5.82"/>
    <rect x="6.04" y="203.72" width="6.03" height="5.82"/>
    <rect class="cls-3" x="6.04" y="110.59" width="6.03" height="5.82"/>
    <rect class="cls-3" x="6.04" y="104.77" width="6.03" height="5.82"/>
    <rect class="cls-3" x="6.04" y="98.95" width="6.03" height="5.82"/>
    <rect class="cls-3" x="6.04" y="93.13" width="6.03" height="5.82"/>
    <rect class="cls-3" x="6.04" y="87.31" width="6.03" height="5.82"/>
    <rect class="cls-2" x="6.04" y="81.49" width="6.03" height="5.82"/>
    <rect class="cls-2" x="6.04" y="75.67" width="6.03" height="5.82"/>
  </g>
</svg>
